<svg xmlns="http://www.w3.org/2000/svg" viewBox="0 0 93.34 93.34">
  <defs>
    <style>
      .cls-1 {
        fill: #c1bbff;
      }

      .cls-2 {
        fill: none;
        stroke: #2b2b2b;
        stroke-linecap: round;
        stroke-linejoin: round;
        stroke-width: 1.48px;
      }
    </style>
  </defs>
  <title>Gnome</title>
  <g id="Layer_35" data-name="Layer 35">
    <circle class="cls-1" cx="46.97" cy="46.99" r="46.5"/>
    <g>
      <path id="earR" class="cls-2" d="M61.33,45.58a40.1,40.1,0,0,1,3.08,7.24c1.31-1,1.87-3.64,1.09-7.16-.57-2.55-2.16-2.19-3.55-1.24A1.81,1.81,0,0,1,61.33,45.58Z"/>
      <path id="earL" class="cls-2" d="M28.89,52.83A40.1,40.1,0,0,1,32,45.58h0a1.81,1.81,0,0,1-.62-1.16c-1.39-.95-3-1.31-3.55,1.24C27,49.18,27.59,51.8,28.89,52.83Z"/>
      <path id="hat" class="cls-2" d="M31.46,43.58A1.8,1.8,0,0,0,32.92,46a121.75,121.75,0,0,0,13.73.75A121.75,121.75,0,0,0,60.38,46a1.8,1.8,0,0,0,1.47-2.41L47.78,15.9c-.62-1.22-1.63-1.22-2.25,0Z"/>
      <path id="beard" class="cls-2" d="M61.33,45.58a1.76,1.76,0,0,1-1,.41l-1.44.15c1.57,3.18,3.33,8.3,1.61,12.91a.6.6,0,0,1,.42.72c-.54,2.18-2.8,6.64-12.29,5.1a2.14,2.14,0,0,1-4.07,0c-9.49,1.54-11.75-2.92-12.29-5.1a.59.59,0,0,1,.2-.61c-1.79-4.66,0-9.84,1.58-13.05L32.92,46a1.76,1.76,0,0,1-1-.41C28.13,52.64,20.1,72.29,45.19,78.8a5.83,5.83,0,0,0,2.93,0C73.2,72.29,65.17,52.64,61.33,45.58Z"/>
      <path id="mouth" class="cls-2" d="M46.78,64.52a.61.61,0,0,0-.27,0q-1,.22-1.9.37a2.14,2.14,0,0,0,4.07,0Q47.78,64.74,46.78,64.52Z"/>
      <path id="moustache" class="cls-2" d="M61,59.78a.6.6,0,0,0-.78-.71,5.72,5.72,0,0,1-5.7-.81c-2.64-2.22-6.81,0-7.68.21a.6.6,0,0,1-.33,0c-.87-.25-5-2.44-7.68-.21a5.72,5.72,0,0,1-5.7.81.6.6,0,0,0-.78.71c.57,2.32,3.09,7.22,14.19,4.73a.61.61,0,0,1,.27,0C57.88,67,60.4,62.1,61,59.78Z"/>
      <path id="nose" class="cls-2" d="M49.8,55.18a3.19,3.19,0,0,0-1-1.73,3.25,3.25,0,0,0-2.1-.77h0a3.25,3.25,0,0,0-2.1.77,3.18,3.18,0,0,0-1,1.64A2.18,2.18,0,0,0,44,57h0a3,3,0,0,0,2.33,1.09H47A3,3,0,0,0,49.34,57h0A2.15,2.15,0,0,0,49.8,55.18Z"/>
      <path id="eyeL" class="cls-2" d="M37.59,52.55a2,2,0,1,1,3.94,0"/>
      <path id="eyeR" class="cls-2" d="M51.78,52.55a2,2,0,0,1,3.94,0"/>
    </g>
  </g>
</svg>
